# xmcd
#
# Track frame offsets: 
#        150
#        13259
#        31107
#        48326
#        66876
#        79741
#        95629
#        113477
#
# Disc length: 1715 seconds
#
# Revision: 0
# Processed by: cddbd v1.5.2PL0 Copyright (c) Steve Scherf et al.
# Submitted via: ExactAudioCopy v1.0b1
#
DISCID=5c06b108
DTITLE=Mentor Kurtishi - Like
DYEAR=2012
DGENRE=Avantgarde
TTITLE0=Like
TTITLE1=Më Fal
TTITLE2=Vetë ke Dashtë
TTITLE3=Me Def E Me Qef
TTITLE4=Ani Ani
TTITLE5=Po Feston Shqipëria
TTITLE6=Jemi Nda
TTITLE7=Dashnisë i dul Flaka
EXTD=
EXTT0=
EXTT1=
EXTT2=
EXTT3=
EXTT4=
EXTT5=
EXTT6=
EXTT7=
PLAYORDER=
